<svg width="70" height="78" viewBox="0 0 70 78" fill="none" xmlns="http://www.w3.org/2000/svg">
<path d="M60 6H10C4.47715 6 0 10.4772 0 16V66C0 71.5229 4.47715 76 10 76H60C65.5229 76 70 71.5229 70 66V16C70 10.4772 65.5229 6 60 6Z" fill="white"/>
<path d="M11.99 25.865C7.886 28.411 3.858 31.831 1.958 35.023C1.54 35.745 0.97 37.113 0.97 38.158C0.97 38.937 1.293 39.545 2.224 39.545C2.338 39.545 2.471 39.526 2.604 39.507C6.936 38.899 10.717 29.817 12.56 26.359C12.712 26.017 12.845 25.865 13.054 25.77C14.441 24.972 17.443 23.775 19.153 23.433C19.267 23.414 19.305 23.376 19.305 23.357C19.305 23.319 19.248 23.3 19.172 23.3H19.115C16.759 23.623 14.954 24.535 13.016 25.447C13.244 24.934 13.719 23.794 13.776 23.528C13.776 23.471 13.795 23.433 13.795 23.376C13.795 23.091 13.624 22.863 13.339 22.863C13.244 22.863 13.149 22.901 13.035 22.939C12.978 22.92 12.921 22.92 12.902 22.92C12.807 22.616 12.769 22.312 12.617 22.065C12.351 21.647 11.952 21.476 11.458 21.476C9.957 21.476 7.772 23.091 7.278 24.44C7.221 24.611 7.183 24.763 7.183 24.915C7.183 25.352 7.468 25.618 7.886 25.618C8 25.618 8.114 25.599 8.228 25.561C8.608 25.466 8.969 25.333 9.311 25.181C9.862 24.934 12.693 23.604 13.035 23.528C13.073 23.528 13.092 23.566 13.092 23.642C13.092 24.079 12.256 25.751 11.99 25.865ZM2.471 39.089C2.376 39.108 2.281 39.108 2.205 39.108C1.54 39.108 1.312 38.671 1.312 38.101C1.312 37.132 1.939 35.745 2.262 35.213C4.542 31.356 9.463 27.784 11.971 26.302C9.691 30.767 6.803 38.443 2.471 39.089ZM8.228 24.649C8.399 24.459 8.532 24.307 8.665 24.155C9.311 23.528 10.09 23.129 10.945 22.901C11.04 22.882 11.135 22.863 11.23 22.863C11.515 22.863 11.743 22.996 11.914 23.281C11.363 23.68 8.779 24.649 8.228 24.649ZM19.6281 27.062C21.5851 26.967 25.4991 24.668 26.8671 23.471C26.9241 23.414 26.9431 23.376 26.9431 23.357C26.9431 23.319 26.9241 23.3 26.9051 23.3C26.8671 23.3 26.8291 23.319 26.7911 23.357C25.3281 24.478 22.2881 26.131 20.4261 26.587C20.1981 26.644 19.9891 26.663 19.7801 26.663C19.0011 26.663 18.5641 26.245 18.5641 25.637C18.5641 25.333 18.6591 24.991 18.8871 24.649C19.0201 24.687 19.1341 24.706 19.2481 24.706C19.4381 24.706 19.6281 24.649 19.7991 24.554C20.3691 24.231 20.9581 23.908 21.4901 23.547C21.7561 23.376 21.9461 23.091 22.1361 22.825C22.2501 22.673 22.3071 22.483 22.3071 22.293C22.3071 21.97 22.0981 21.685 21.6991 21.685C21.5471 21.685 21.3761 21.704 21.1861 21.799C19.8181 22.369 18.8491 23.338 18.2981 24.687C18.1841 24.953 18.1271 25.257 18.1271 25.561C18.1271 26.321 18.5261 27.062 19.5141 27.062H19.6281ZM21.3381 22.426C21.2431 22.901 20.0271 23.87 19.2101 24.117C19.8181 23.357 20.4261 22.711 21.3381 22.426ZM27.0053 32.059C29.0763 31.242 30.9383 29.209 31.7553 27.138C31.9453 26.644 32.0023 26.245 32.0023 25.941C32.0023 25.39 31.8313 25.086 31.8313 24.972C31.8313 24.934 31.8313 24.915 31.8693 24.896C33.0663 24.383 36.3343 23.661 37.5123 23.471C37.7213 23.433 37.7973 23.395 37.7973 23.357C37.7973 23.319 37.7213 23.3 37.5883 23.3C37.5123 23.3 37.4363 23.3 37.3413 23.319C35.9923 23.49 32.8763 24.155 31.6033 24.611C31.2993 24.079 30.3303 24.06 29.3613 23.984C28.4113 23.889 27.4613 23.737 27.4233 23.281V23.243C27.4233 22.217 30.0833 20.317 31.1283 20.317C31.3183 20.317 31.4513 20.374 31.5083 20.507C31.6793 20.849 31.8503 20.963 32.0213 20.963C32.3253 20.963 32.5533 20.488 32.5533 20.203C32.5533 20.146 32.5533 20.108 32.5343 20.07C32.4203 19.69 31.9453 19.329 31.5463 19.272C31.5083 19.272 31.4513 19.253 31.3943 19.253C30.0643 19.253 26.7583 21.761 26.7583 23.319C26.7583 23.395 26.7773 23.49 26.7963 23.566C27.1573 24.839 30.9573 24.44 31.1093 24.801C28.8103 25.618 26.1123 27.138 24.8013 29.38C24.4403 29.988 24.2693 30.558 24.2693 31.014C24.2693 31.831 24.8013 32.344 25.6943 32.344C26.0743 32.344 26.5113 32.249 27.0053 32.059ZM25.0863 29.513C26.2073 27.594 29.3423 25.789 31.3563 25.143C31.5083 25.39 31.5653 25.637 31.5653 25.884C31.5653 26.055 31.5463 26.245 31.4893 26.416C30.8623 28.563 28.8103 30.938 26.7203 31.717C26.3213 31.869 25.9413 31.945 25.6373 31.945C24.9913 31.945 24.5733 31.622 24.5733 30.995C24.5733 30.615 24.7253 30.121 25.0863 29.513ZM35.8852 27.195C35.9232 27.651 36.2842 28.031 36.8352 28.069H36.9492C38.7542 28.069 40.3692 25.143 41.5662 24.041C41.4142 24.44 41.1482 25.314 41.1482 26.036C41.1482 26.625 41.3192 27.119 41.8512 27.195H42.0222C43.9602 27.195 46.8102 24.82 48.4822 23.585C48.5582 23.528 48.5962 23.471 48.5962 23.414C48.5962 23.338 48.5582 23.3 48.4822 23.3C48.4252 23.3 48.3682 23.319 48.2732 23.395C46.6582 24.649 43.6562 26.758 42.2312 26.758H42.2122C41.8892 26.739 41.7562 26.568 41.7562 26.302C41.7562 25.637 42.5162 24.421 42.6872 23.832C42.7632 23.585 42.8582 23.319 42.8582 23.091C42.8582 22.939 42.8012 22.806 42.6682 22.73C42.5922 22.692 42.5352 22.673 42.4592 22.673C42.1932 22.673 41.9462 22.92 41.7182 23.11C41.2812 23.509 38.4882 27.537 36.9492 27.537C36.6832 27.518 36.5122 27.461 36.4552 27.1V27.062C36.4552 26.568 37.4242 24.915 38.1842 23.775C38.4312 23.357 38.7352 23.072 38.9632 22.749C39.0202 22.673 39.0582 22.578 39.0582 22.483C39.0582 22.293 38.9442 22.122 38.7542 22.122C38.6212 22.122 38.4502 22.217 38.2602 22.426C37.8802 22.863 35.8852 25.675 35.8852 27.119V27.195ZM47.1409 27.043C47.2359 27.1 47.3309 27.138 47.4259 27.138C47.8059 27.138 48.1669 26.701 48.4899 26.397C49.6489 25.333 50.8269 24.25 51.9859 23.167C52.1189 23.053 52.2519 22.977 52.4609 22.806C52.4419 23.167 52.4229 23.433 52.4229 23.699C52.4229 23.965 52.4039 24.307 52.4039 24.649C52.4039 25.39 52.4989 26.188 53.1449 26.511C53.3919 26.644 53.6579 26.701 53.9429 26.701C55.6339 26.701 57.6859 24.592 58.6549 23.509C58.6929 23.471 58.7119 23.395 58.7119 23.357V23.319H58.6929C58.4459 23.319 56.0519 26.378 54.1139 26.378C53.8669 26.378 53.6199 26.321 53.3919 26.207C53.0119 25.998 52.9169 25.276 52.9169 24.535C52.9169 23.927 52.9739 23.3 52.9739 22.939V22.863C52.9549 22.483 52.8029 22.274 52.5369 22.274C52.4229 22.274 52.2899 22.312 52.1379 22.407C51.4919 22.806 49.3829 24.725 48.5659 25.428C48.5659 25.2 48.6229 25.048 48.7179 24.915C49.1359 24.117 49.8199 22.996 50.1049 22.217C50.1239 22.179 50.1239 22.122 50.1239 22.065C50.1239 21.875 50.0099 21.666 49.8009 21.666C49.6299 21.666 49.4019 21.799 49.1359 22.16C48.2809 23.281 47.5779 24.478 47.0459 25.77C46.9509 25.998 46.8559 26.264 46.8559 26.492C46.8559 26.72 46.9319 26.91 47.1409 27.043ZM58.6755 26.416C59.7775 25.77 61.0695 23.832 62.0005 22.768C62.0765 22.844 62.1145 22.901 62.1145 22.958C62.1145 23.053 62.0575 23.11 62.0195 23.186C61.0695 25.333 60.0815 27.48 59.5115 29.76C59.3975 30.216 59.3595 30.558 59.3595 30.805C59.3595 31.28 59.5115 31.451 59.6445 31.451C59.7205 31.451 59.7965 31.375 59.7965 31.28V31.223C59.7585 31.109 59.7585 30.976 59.7585 30.862C59.7585 30.615 59.8155 30.387 59.8725 30.14C60.0245 29.646 60.1575 29.133 60.3475 28.658C62.2855 23.68 64.7555 19.006 68.0425 14.788C68.2135 14.579 68.3465 14.351 68.4985 14.123C68.5365 14.047 68.5555 13.971 68.5555 13.914C68.5555 13.743 68.4225 13.648 68.2135 13.648C68.1375 13.648 68.0805 13.648 68.0045 13.667C67.8905 13.705 67.7955 13.819 67.7195 13.895C66.1615 15.643 65.2115 17.277 64.0145 19.272C63.5015 20.089 62.8935 20.849 62.3045 21.666C61.9245 21.305 61.5825 21.134 61.2405 21.134C60.9935 21.134 60.7085 21.248 60.4045 21.438C59.2265 22.16 58.1815 23.737 57.6685 25.01C57.5545 25.295 57.4975 25.561 57.4975 25.77C57.4975 26.283 57.7825 26.568 58.1625 26.568C58.3335 26.568 58.5045 26.511 58.6755 26.416ZM58.6185 25.39C59.1505 24.288 59.8725 23.338 60.8415 22.578C61.0505 22.407 61.1645 22.369 61.2785 22.369C61.3735 22.369 61.4685 22.407 61.6585 22.426C60.6325 23.585 59.7965 24.763 58.5425 25.675C58.5805 25.504 58.5805 25.447 58.6185 25.39Z" fill="black"/>
<path d="M5.772 64.499C6.285 63.758 6.741 62.979 7.292 62.257C8.299 60.889 9.42 59.597 10.807 58.59C11.035 58.419 11.282 58.286 11.51 58.134C11.529 58.21 11.529 58.286 11.529 58.343C11.529 58.457 11.51 58.552 11.491 58.628C11.054 59.844 10.56 61.06 10.199 62.314C10.142 62.523 10.123 62.77 10.123 62.998C10.123 63.112 10.123 63.226 10.142 63.34C10.18 63.701 10.408 63.891 10.693 63.891C10.807 63.891 10.921 63.872 11.035 63.815C11.89 63.416 13.296 61.402 13.847 61.098C13.942 62.029 13.98 63.359 14.949 63.815C15.253 63.948 15.557 64.005 15.88 64.005C16.963 64.005 18.084 63.302 18.901 62.618C19.68 61.972 20.573 61.155 21.181 60.376C21.162 60.357 21.124 60.319 21.086 60.3C20.478 60.965 19.509 61.934 18.844 62.466C18.084 63.074 17.001 63.758 15.994 63.758C15.69 63.758 15.386 63.682 15.101 63.53C14.246 63.055 14.436 61.991 14.322 61.212C14.265 60.87 14.113 60.699 13.885 60.699C13.771 60.699 13.638 60.756 13.486 60.87C13.068 61.193 11.814 62.504 11.339 62.96C11.168 63.112 10.959 63.226 10.674 63.435C10.674 63.264 10.655 63.131 10.655 63.017C10.655 62.941 10.674 62.865 10.693 62.808C10.826 62.257 10.959 61.725 11.149 61.212C11.453 60.338 12.175 58.875 12.251 58.077V57.963C12.251 57.621 12.042 57.412 11.719 57.412C11.643 57.412 11.548 57.412 11.453 57.45C10.142 57.887 8.299 59.54 7.387 60.528C7.273 60.642 7.178 60.775 6.931 60.87C7.178 60.338 7.387 59.901 7.577 59.445C7.615 59.331 7.634 59.236 7.634 59.141C7.634 58.894 7.463 58.761 7.273 58.761C7.14 58.761 7.007 58.818 6.893 58.951C6.608 59.293 6.285 59.635 6.133 60.034C5.677 61.326 5.278 62.656 4.86 63.967C4.784 64.214 4.746 64.404 4.746 64.575C4.746 64.879 4.879 65.012 5.069 65.012C5.278 65.012 5.544 64.822 5.772 64.499ZM19.2455 64.195C19.2835 64.651 19.6445 65.031 20.1955 65.069H20.3095C22.1145 65.069 23.7295 62.143 24.9265 61.041C24.7745 61.44 24.5085 62.314 24.5085 63.036C24.5085 63.625 24.6795 64.119 25.2115 64.195H25.3825C27.3205 64.195 30.1705 61.82 31.8425 60.585C31.9185 60.528 31.9565 60.471 31.9565 60.414C31.9565 60.338 31.9185 60.3 31.8425 60.3C31.7855 60.3 31.7285 60.319 31.6335 60.395C30.0185 61.649 27.0165 63.758 25.5915 63.758H25.5725C25.2495 63.739 25.1165 63.568 25.1165 63.302C25.1165 62.637 25.8765 61.421 26.0475 60.832C26.1235 60.585 26.2185 60.319 26.2185 60.091C26.2185 59.939 26.1615 59.806 26.0285 59.73C25.9525 59.692 25.8955 59.673 25.8195 59.673C25.5535 59.673 25.3065 59.92 25.0785 60.11C24.6415 60.509 21.8485 64.537 20.3095 64.537C20.0435 64.518 19.8725 64.461 19.8155 64.1V64.062C19.8155 63.568 20.7845 61.915 21.5445 60.775C21.7915 60.357 22.0955 60.072 22.3235 59.749C22.3805 59.673 22.4185 59.578 22.4185 59.483C22.4185 59.293 22.3045 59.122 22.1145 59.122C21.9815 59.122 21.8105 59.217 21.6205 59.426C21.2405 59.863 19.2455 62.675 19.2455 64.119V64.195ZM30.5012 64.043C30.5962 64.1 30.6912 64.138 30.7862 64.138C31.1662 64.138 31.5272 63.701 31.8502 63.397C33.0092 62.333 34.1872 61.25 35.3462 60.167C35.4792 60.053 35.6122 59.977 35.8212 59.806C35.8022 60.167 35.7832 60.433 35.7832 60.699C35.7832 60.965 35.7642 61.307 35.7642 61.649C35.7642 62.39 35.8592 63.188 36.5052 63.511C36.7522 63.644 37.0182 63.701 37.3032 63.701C38.9942 63.701 41.0462 61.592 42.0152 60.509C42.0532 60.471 42.0722 60.395 42.0722 60.357V60.319H42.0532C41.8062 60.319 39.4122 63.378 37.4742 63.378C37.2272 63.378 36.9802 63.321 36.7522 63.207C36.3722 62.998 36.2772 62.276 36.2772 61.535C36.2772 60.927 36.3342 60.3 36.3342 59.939V59.863C36.3152 59.483 36.1632 59.274 35.8972 59.274C35.7832 59.274 35.6502 59.312 35.4982 59.407C34.8522 59.806 32.7432 61.725 31.9262 62.428C31.9262 62.2 31.9832 62.048 32.0782 61.915C32.4962 61.117 33.1802 59.996 33.4652 59.217C33.4842 59.179 33.4842 59.122 33.4842 59.065C33.4842 58.875 33.3702 58.666 33.1612 58.666C32.9902 58.666 32.7622 58.799 32.4962 59.16C31.6412 60.281 30.9382 61.478 30.4062 62.77C30.3112 62.998 30.2162 63.264 30.2162 63.492C30.2162 63.72 30.2922 63.91 30.5012 64.043ZM35.8419 53.08C38.9389 52.529 42.8149 52.567 45.7219 52.415C45.9119 52.415 46.0069 52.434 46.0069 52.529C46.0069 52.586 45.9879 52.662 45.9119 52.776C44.2399 55.588 39.1859 65.297 38.4639 68.47C38.4069 68.679 38.3879 68.85 38.3879 69.002C38.3879 69.401 38.5589 69.553 38.7489 69.553C38.9389 69.553 39.1479 69.382 39.2239 69.211C39.2429 69.173 39.2429 69.154 39.2429 69.135C39.2429 68.964 38.9959 68.964 38.8819 68.869C38.9009 68.736 38.9199 68.565 38.9579 68.432C40.1359 64.404 44.5819 56.652 46.6909 52.814C46.7859 52.662 46.9949 52.377 47.2799 52.377C48.2489 52.339 52.7519 52.282 56.5329 52.282C59.0409 52.282 61.2259 52.301 61.8909 52.358C61.9859 52.377 62.4039 52.548 62.5369 52.548H62.5559C62.5749 52.548 62.7459 52.415 62.7459 52.282C62.7459 52.206 62.6699 52.13 62.4609 52.092C61.9859 52.054 61.3779 52.035 60.9029 52.016C59.0789 51.959 52.7329 51.826 49.3319 51.826C48.6099 51.826 48.0209 51.826 47.6409 51.845C47.5079 51.845 47.4509 51.826 47.4509 51.769C47.4509 51.712 47.4889 51.655 47.5459 51.56C47.9449 50.933 48.9709 49.432 49.3889 48.71C49.5219 48.52 49.6549 48.311 49.6549 48.159C49.6549 48.102 49.6359 48.064 49.5979 48.026C49.4459 47.893 49.2939 47.836 49.1419 47.836C48.9329 47.836 48.7429 47.969 48.5909 48.14C48.2109 48.558 46.8429 51.066 46.5959 51.503C46.4629 51.75 46.4059 51.845 46.1019 51.864C44.0879 51.921 39.9459 52.13 37.9509 52.206H36.9059C36.3549 52.206 35.8419 52.244 35.3099 52.434C34.9489 52.548 34.8539 52.7 34.8539 52.833C34.8539 52.871 34.8729 52.928 34.8919 52.966C34.9489 53.061 35.0059 53.137 35.2719 53.137C35.4049 53.137 35.5949 53.118 35.8419 53.08ZM46.7219 64.062C48.6789 63.967 52.5929 61.668 53.9609 60.471C54.0179 60.414 54.0369 60.376 54.0369 60.357C54.0369 60.319 54.0179 60.3 53.9989 60.3C53.9609 60.3 53.9229 60.319 53.8849 60.357C52.4219 61.478 49.3819 63.131 47.5199 63.587C47.2919 63.644 47.0829 63.663 46.8739 63.663C46.0949 63.663 45.6579 63.245 45.6579 62.637C45.6579 62.333 45.7529 61.991 45.9809 61.649C46.1139 61.687 46.2279 61.706 46.3419 61.706C46.5319 61.706 46.7219 61.649 46.8929 61.554C47.4629 61.231 48.0519 60.908 48.5839 60.547C48.8499 60.376 49.0399 60.091 49.2299 59.825C49.3439 59.673 49.4009 59.483 49.4009 59.293C49.4009 58.97 49.1919 58.685 48.7929 58.685C48.6409 58.685 48.4699 58.704 48.2799 58.799C46.9119 59.369 45.9429 60.338 45.3919 61.687C45.2779 61.953 45.2209 62.257 45.2209 62.561C45.2209 63.321 45.6199 64.062 46.6079 64.062H46.7219ZM48.4319 59.426C48.3369 59.901 47.1209 60.87 46.3039 61.117C46.9119 60.357 47.5199 59.711 48.4319 59.426ZM53.1301 66.475C53.2631 66.893 53.4911 67.235 54.1181 67.349C54.1941 67.368 54.2701 67.368 54.3651 67.368C56.7591 67.368 61.4711 62.048 63.7891 60.604C63.8841 60.566 63.9601 60.471 64.0361 60.395C64.0171 60.376 63.9981 60.338 63.9601 60.3C63.8271 60.376 63.6941 60.433 63.5611 60.509C62.0791 61.345 56.6641 67.121 54.4411 67.121C54.3461 67.121 54.2511 67.102 54.1751 67.083C53.7191 66.969 53.5101 66.646 53.4721 66.228V66.114C53.4721 64.48 55.7901 61.991 55.9041 61.383C55.9421 61.25 55.9421 61.136 55.9421 61.022C55.9421 60.3 55.2961 60.072 54.6311 59.844C54.8211 59.635 54.8781 59.445 54.8781 59.274C54.8781 58.913 54.5551 58.685 54.2321 58.685C54.0801 58.685 53.9281 58.742 53.8141 58.856C53.4911 59.236 53.3201 59.673 53.3201 60.015C53.3201 60.205 53.3771 60.357 53.4721 60.452C53.9471 60.775 55.0301 60.737 55.0301 61.25C55.0301 61.288 55.0111 61.326 55.0111 61.364C54.8021 62.143 53.0541 64.29 53.0541 65.905C53.0541 66.114 53.0731 66.304 53.1301 66.475Z" fill="black"/>
<path d="M36.232 38.291C36.27 38.272 36.289 38.272 36.327 38.272C36.365 38.272 36.403 38.272 36.441 38.31C36.498 38.367 36.555 38.386 36.574 38.386C36.707 38.386 36.688 38.12 36.802 38.082C36.992 38.044 37.182 37.968 37.372 37.968C37.41 37.968 37.467 37.987 37.505 37.987C37.885 38.025 37.524 38.462 37.98 38.462H38.018C38.151 38.348 38.208 38.139 38.208 37.93C38.208 37.702 38.132 37.455 37.961 37.379C37.828 37.322 37.695 37.303 37.581 37.303C37.448 37.303 37.334 37.322 37.239 37.322C37.201 37.322 37.163 37.322 37.125 37.303C37.239 36.999 37.885 35.764 38.056 35.403C38.151 35.194 38.208 35.042 38.208 34.947C38.208 34.814 38.132 34.757 38.056 34.757C37.999 34.757 37.923 34.795 37.885 34.852C37.505 35.27 36.745 36.543 36.555 37.056C36.479 37.303 36.346 37.436 36.118 37.512C35.548 37.74 34.883 38.082 34.427 38.481C34.218 38.671 34.066 38.956 34.066 39.222C34.066 39.469 34.199 39.716 34.522 39.868C34.807 40.001 35.358 39.944 35.7 40.001C35.567 40.096 35.586 40.077 35.415 40.153C34.256 40.628 33.078 41.179 32.166 42.015C31.539 42.604 31.007 43.421 30.931 44.295V44.447C30.931 45.036 31.235 45.492 31.767 45.682C31.938 45.739 32.09 45.758 32.223 45.758C32.413 45.758 32.565 45.72 32.717 45.72C32.755 45.72 32.812 45.739 32.85 45.739H32.907C32.964 45.739 32.983 45.777 32.983 45.815V45.872C32.546 46.841 31.881 48.532 31.672 49.539V49.577C31.672 49.672 31.71 49.786 31.786 49.843C31.805 49.862 31.843 49.881 31.862 49.881C31.9 49.881 31.938 49.862 31.957 49.805L32.223 48.969C32.603 47.848 33.097 46.765 33.591 45.682C33.648 45.568 33.743 45.511 33.857 45.454C34.731 45.15 36.403 44.409 37.201 43.896C37.258 43.839 37.619 43.592 37.619 43.459C37.619 43.44 37.619 43.421 37.6 43.402C37.562 43.364 37.524 43.345 37.448 43.345C37.353 43.345 37.182 43.402 36.84 43.592C35.643 44.219 34.503 44.903 33.192 45.245C32.926 45.321 32.698 45.359 32.489 45.359C31.786 45.359 31.482 44.941 31.482 44.409C31.482 43.972 31.691 43.459 32.014 43.022C32.983 41.749 34.047 41.198 35.605 40.59C35.738 40.552 36.194 40.324 36.308 40.267C36.46 40.191 36.517 40.077 36.517 39.982C36.517 39.83 36.403 39.697 36.213 39.678C35.833 39.621 35.453 39.621 35.092 39.526C34.959 39.488 34.788 39.431 34.788 39.298C34.788 39.279 34.788 39.241 34.807 39.203C35.035 38.747 35.795 38.481 36.232 38.291Z" fill="black"/>
</svg>
